Patient4_TMGait_0pt6_01_left_02_EMG.mot
version=1
nRows=13
nColumns=33
inDegrees=no
endheader
time	1LAddLong	2LGlutMax	3LGlutMed	4LIliopsoas	5LSemiMemb	6LBicFemLong	7LRecFem	8LVastMed	9LVastLat	10LGasMed	11LTibAnt	12lTibPost	13LPeroneusLong	14LSol	15LExtDigLong	16LFlexDigLong	17RAddLong	18RGlutMax	19RGlutMed	20RIliopsoas	21RSemiMemb	22RBicFemLong	23RRecFem	24RVastMed	25RVastLat	26RGasMed	27RTibAnt	28RTibPost	29RPeroneusLong	30RSol	31RExtDigLong	32RFlexDigLong
2.39	0.01358	-0.17731	-0.037384	0.009155	-0.01358	0.00885	0.10361	0.026703	-0.16922	-0.027466	-0.08316	0.001678	0.078125	-0.21042	0.053711	0.009308	-0.009308	-0.15961	0.042877	-0.19379	-0.037231	-0.021057	0.25559	0.16724	0.047455	-0.013885	0.10651	-0.000763	-0.19379	-0.026703	-0.003052	-0.001831
2.391	0.01709	-0.16098	-0.042725	0.00885	-0.019989	0.010071	0.103	0.025482	-0.097351	-0.027924	-0.062866	0.003357	0.071564	-0.069733	0.097351	0.005798	-0.019379	-0.067596	0.32898	-0.25696	-0.02655	-0.015411	0.16113	0.13825	-0.013733	-0.003662	0.076141	-0.000305	-0.28244	0.038147	-0.000916	-0.003815
2.392	0.022583	-0.17883	-0.028076	0.018005	-0.019989	0.013885	0.09079	0.023651	-0.048828	-0.027161	0.045319	0.006104	0.03067	-0.010223	-0.2327	0.009155	-0.01236	-0.001984	0.17777	-0.1767	-0.032349	-0.002136	-0.091248	-0.027313	0.08667	-0.014496	0.068817	0.005035	-0.10452	0.058136	-0.003967	-0.00946
2.393	0.024719	-0.1648	-0.012207	0.007629	0.001984	0.013733	0.07843	0.027008	-0.013885	-0.027466	0.046539	0.002594	-0.004425	-0.071106	-0.042419	0.013733	0.006866	0.13412	-0.23346	-0.00885	-0.031891	0.00412	-0.20279	-0.095673	0.12695	0.009766	-0.004272	-0.010223	0.30655	-0.06897	-0.003662	-0.011749
2.394	0.021057	-0.18265	-0.013275	-0.001526	0.005646	0.003357	0.068665	0.023651	0.002289	-0.070496	0.011444	-0.007477	0.029449	0.027008	-0.12085	0.000763	0.010223	0.22537	-0.25925	0.1712	-0.041656	0.000305	-0.10651	-0.076141	0.056915	0.033569	-0.064392	-0.002441	0.6218	0.019226	-0.001221	-0.010529
2.395	0.014343	-0.14557	-0.024719	0.001831	-0.001068	0.020599	0.069275	0.021362	0.030975	-0.080414	0.018158	0.004272	0.056915	0.071106	-0.15762	0.003967	0.000305	0.31006	-0.16769	0.28168	-0.02594	0.009918	-0.059662	-0.019684	0.028076	0.04776	0.003357	0.007172	0.80429	0.14465	-0.002747	-0.010376
2.396	0.016785	-0.15991	-0.057068	0.007782	0.002136	0.010071	0.074768	0.027161	0.051727	-0.057068	0.010681	0.00351	0.083923	0.036316	-0.13184	0.009003	-0.006561	0.39444	-0.16556	0.22949	-0.022278	0.031891	-0.11078	-0.075836	-0.029144	0.020752	0.058899	-0.01297	0.31403	0.24399	-0.001221	-0.008698
2.397	0.020905	-0.11429	-0.097504	-0.005798	0.007019	0.006409	0.061951	0.019836	0.07843	-0.010681	-0.000153	-0.002899	0.091553	0.046082	-0.1181	0.001068	-0.018768	0.44083	0.009918	0.19943	-0.016327	0.029449	-0.25101	-0.12466	-0.017242	-0.011444	0.14633	-0.032043	-0.13473	0.25467	-0.002747	-0.009308
2.398	0.022125	-0.15625	-0.12405	-0.010681	0.006714	0.005646	0.048065	0.018463	0.085602	0.032501	-0.016327	0.001526	0.06958	0.02533	-0.061188	0.00412	-0.012207	0.40756	0.10925	0.002747	-0.003662	-0.000305	-0.23529	0.016937	0.030365	-0.061493	0.15884	0.006561	0.35431	0.12299	-0.006561	-0.007019
2.399	0.02243	-0.088959	-0.11429	0.010681	0.007172	0.04364	0.058441	0.024719	0.10696	0.054474	-0.04425	0.000916	0.067596	-0.010986	0.03006	0.007629	0.000153	0.40878	0.17532	-0.16983	-0.023193	0.006561	0.00473	0.028992	-0.017548	-0.042572	0.049286	0.045471	1.2508	-0.1651	-0.001373	-0.000458
2.4	0.013123	-0.11765	-0.029755	0.009766	-0.000305	0.013733	0.05661	0.018616	0.12894	0.037384	-0.030975	0.000916	0.071716	-0.032501	0.071411	0.007324	-0.005951	0.4126	0.25955	-0.13458	-0.00946	0.022278	0.27985	-0.015106	0.010071	-0.033417	0.027161	0.012817	0.63004	-0.30426	-0.003357	0
2.401	0.018616	-0.10574	0.01358	-0.006409	-0.029907	-0.003052	0.041962	0.015564	0.15488	0.015564	-0.014648	0.00061	0.090332	-0.00946	0.052032	-0.004578	-0.00824	0.41672	0.40344	-0.015869	-0.006561	0.001373	0.48065	0.021057	0.062561	-0.022888	0.10895	0.015869	-0.29419	-0.38879	0	-0.002136
2.402	0.015411	-0.12222	0.069885	0.005341	0.01297	-0.031738	0.042114	0.020599	0.1796	-0.006561	-0.032501	0.000153	0.068359	0.050201	0.005493	0.000305	-0.011444	0.36118	0.15671	0.074768	-0.002136	-0.022125	0.36636	0.068665	0.14572	-0.085449	0.18326	-0.014496	-0.74875	-0.354	-0.003815	0.000763
